{
  "asset": {
    "generator": "glTF-Transform v3.5.1",
    "version": "2.0",
    "extras": {
      "author": "Rusoski (https://sketchfab.com/Rusoski)",
      "license": "CC-BY-4.0 (http://creativecommons.org/licenses/by/4.0/)",
      "source": "https://sketchfab.com/3d-models/flowers-pack-2-2b1a4b57567b40c88a50a6551ac312ef",
      "title": "Flowers pack 2"
    }
  },
  "accessors": [
    {
      "type": "SCALAR",
      "componentType": 5123,
      "count": 144,
      "bufferView": 0,
      "byteOffset": 0
    },
    {
      "type": "SCALAR",
      "componentType": 5123,
      "count": 144,
      "bufferView": 0,
      "byteOffset": 288
    },
    {
      "type": "SCALAR",
      "componentType": 5123,
      "count": 144,
      "bufferView": 0,
      "byteOffset": 576
    },
    {
      "type": "SCALAR",
      "componentType": 5123,
      "count": 216,
      "bufferView": 0,
      "byteOffset": 864
    },
    {
      "type": "VEC3",
      "componentType": 5126,
      "count": 57,
      "bufferView": 1,
      "byteOffset": 0
    },
    {
      "type": "VEC3",
      "componentType": 5126,
      "count": 57,
      "max": [
        0.5965209603309631,
        0.7113609910011292,
        2.293750047683716
      ],
      "min": [
        -0.8890200257301331,
        -0.774179995059967,
        -0.16056999564170837
      ],
      "bufferView": 1,
      "byteOffset": 12
    },
    {
      "type": "VEC4",
      "componentType": 5126,
      "count": 57,
      "bufferView": 1,
      "byteOffset": 24
    },
    {
      "type": "VEC2",
      "componentType": 5126,
      "count": 57,
      "bufferView": 1,
      "byteOffset": 40
    },
    {
      "type": "VEC2",
      "componentType": 5126,
      "count": 57,
      "bufferView": 1,
      "byteOffset": 48
    },
    {
      "type": "VEC2",
      "componentType": 5126,
      "count": 57,
      "bufferView": 1,
      "byteOffset": 56
    },
    {
      "type": "VEC3",
      "componentType": 5126,
      "count": 57,
      "bufferView": 2,
      "byteOffset": 0
    },
    {
      "type": "VEC3",
      "componentType": 5126,
      "count": 57,
      "max": [
        0.5965209603309631,
        0.7113609910011292,
        2.293750047683716
      ],
      "min": [
        -0.8890200257301331,
        -0.774179995059967,
        -0.16056999564170837
      ],
      "bufferView": 2,
      "byteOffset": 12
    },
    {
      "type": "VEC4",
      "componentType": 5126,
      "count": 57,
      "bufferView": 2,
      "byteOffset": 24
    },
    {
      "type": "VEC2",
      "componentType": 5126,
      "count": 57,
      "bufferView": 2,
      "byteOffset": 40
    },
    {
      "type": "VEC2",
      "componentType": 5126,
      "count": 57,
      "bufferView": 2,
      "byteOffset": 48
    },
    {
      "type": "VEC2",
      "componentType": 5126,
      "count": 57,
      "bufferView": 2,
      "byteOffset": 56
    },
    {
      "type": "VEC3",
      "componentType": 5126,
      "count": 57,
      "bufferView": 3,
      "byteOffset": 0
    },
    {
      "type": "VEC3",
      "componentType": 5126,
      "count": 57,
      "max": [
        0.5965209603309631,
        0.7113609910011292,
        2.293750047683716
      ],
      "min": [
        -0.8890200257301331,
        -0.774179995059967,
        -0.16056999564170837
      ],
      "bufferView": 3,
      "byteOffset": 12
    },
    {
      "type": "VEC4",
      "componentType": 5126,
      "count": 57,
      "bufferView": 3,
      "byteOffset": 24
    },
    {
      "type": "VEC2",
      "componentType": 5126,
      "count": 57,
      "bufferView": 3,
      "byteOffset": 40
    },
    {
      "type": "VEC2",
      "componentType": 5126,
      "count": 57,
      "bufferView": 3,
      "byteOffset": 48
    },
    {
      "type": "VEC2",
      "componentType": 5126,
      "count": 57,
      "bufferView": 3,
      "byteOffset": 56
    },
    {
      "type": "VEC3",
      "componentType": 5126,
      "count": 82,
      "bufferView": 4,
      "byteOffset": 0
    },
    {
      "type": "VEC3",
      "componentType": 5126,
      "count": 82,
      "max": [
        0.5965209603309631,
        0.7113609910011292,
        2.293750047683716
      ],
      "min": [
        -0.8890200257301331,
        -0.774179995059967,
        -0.16056999564170837
      ],
      "bufferView": 4,
      "byteOffset": 12
    },
    {
      "type": "VEC4",
      "componentType": 5126,
      "count": 82,
      "bufferView": 4,
      "byteOffset": 24
    },
    {
      "type": "VEC2",
      "componentType": 5126,
      "count": 82,
      "bufferView": 4,
      "byteOffset": 40
    },
    {
      "type": "VEC2",
      "componentType": 5126,
      "count": 82,
      "bufferView": 4,
      "byteOffset": 48
    },
    {
      "type": "VEC2",
      "componentType": 5126,
      "count": 82,
      "bufferView": 4,
      "byteOffset": 56
    }
  ],
  "bufferViews": [
    {
      "buffer": 0,
      "byteOffset": 0,
      "byteLength": 1296,
      "target": 34963
    },
    {
      "buffer": 0,
      "byteOffset": 1296,
      "byteLength": 3648,
      "byteStride": 64,
      "target": 34962
    },
    {
      "buffer": 0,
      "byteOffset": 4944,
      "byteLength": 3648,
      "byteStride": 64,
      "target": 34962
    },
    {
      "buffer": 0,
      "byteOffset": 8592,
      "byteLength": 3648,
      "byteStride": 64,
      "target": 34962
    },
    {
      "buffer": 0,
      "byteOffset": 12240,
      "byteLength": 5248,
      "byteStride": 64,
      "target": 34962
    }
  ],
  "samplers": [
    {
      "magFilter": 9729,
      "minFilter": 9987,
      "wrapS": 10497,
      "wrapT": 10497
    }
  ],
  "textures": [
    {
      "source": 0,
      "sampler": 0
    },
    {
      "source": 1,
      "sampler": 0
    },
    {
      "source": 2,
      "sampler": 0
    },
    {
      "source": 6,
      "sampler": 0
    },
    {
      "source": 3,
      "sampler": 0
    },
    {
      "source": 4,
      "sampler": 0
    },
    {
      "source": 5,
      "sampler": 0
    }
  ],
  "images": [
    {
      "name": "Flower4_diffuse",
      "mimeType": "image/png",
      "uri": "textures/yellow.png"
    },
    {
      "name": "Flower4_normal",
      "mimeType": "image/png",
      "uri": "textures/normal_1.png"
    },
    {
      "name": "Flower2_diffuse",
      "mimeType": "image/png",
      "uri": "textures/blue.png"
    },
    {
      "name": "Flower3_diffuse",
      "mimeType": "image/png",
      "uri": "textures/purple.png"
    },
    {
      "name": "Flower1_diffuse",
      "mimeType": "image/png",
      "uri": "textures/red.png"
    },
    {
      "mimeType": "image/png",
      "uri": "textures/normal_1.png"
    },
    {
      "mimeType": "image/png",
      "uri": "textures/metallicRoughness_1.png"
    }
  ],
  "buffers": [
    {
      "name": "flower",
      "uri": "flowerOut.bin",
      "byteLength": 17488
    }
  ],
  "materials": [
    {
      "name": "Flower4",
      "alphaMode": "BLEND",
      "doubleSided": true,
      "pbrMetallicRoughness": {
        "roughnessFactor": 0.6,
        "metallicFactor": 0,
        "baseColorTexture": {
          "index": 0
        }
      },
      "normalTexture": {
        "index": 1
      },
      "extensions": {
        "KHR_materials_ior": {
          "ior": 1000
        },
        "KHR_materials_specular": {
          "specularColorFactor": [
            0.05,
            0.05,
            0.05
          ]
        }
      }
    },
    {
      "name": "Flower2",
      "alphaMode": "BLEND",
      "doubleSided": true,
      "pbrMetallicRoughness": {
        "metallicFactor": 0,
        "baseColorTexture": {
          "index": 2
        },
        "metallicRoughnessTexture": {
          "index": 3
        }
      },
      "normalTexture": {
        "index": 1
      },
      "extensions": {
        "KHR_materials_ior": {
          "ior": 1000
        },
        "KHR_materials_specular": {
          "specularTexture": {
            "index": 6
          },
          "specularColorTexture": {
            "index": 6
          }
        }
      }
    },
    {
      "name": "Flower3",
      "alphaMode": "BLEND",
      "doubleSided": true,
      "pbrMetallicRoughness": {
        "roughnessFactor": 0.6,
        "metallicFactor": 0,
        "baseColorTexture": {
          "index": 4
        }
      },
      "normalTexture": {
        "index": 1
      },
      "extensions": {
        "KHR_materials_ior": {
          "ior": 1000
        },
        "KHR_materials_specular": {
          "specularColorFactor": [
            0.05,
            0.05,
            0.05
          ]
        }
      }
    },
    {
      "name": "Flower1",
      "alphaMode": "BLEND",
      "doubleSided": true,
      "pbrMetallicRoughness": {
        "roughnessFactor": 0.6,
        "metallicFactor": 0,
        "baseColorTexture": {
          "index": 5
        }
      },
      "normalTexture": {
        "index": 1
      },
      "extensions": {
        "KHR_materials_ior": {
          "ior": 1000
        },
        "KHR_materials_specular": {
          "specularColorFactor": [
            0.05,
            0.05,
            0.05
          ]
        }
      }
    }
  ],
  "meshes": [
    {
      "name": "Plane.000_0",
      "primitives": [
        {
          "attributes": {
            "NORMAL": 4,
            "POSITION": 5,
            "TANGENT": 6,
            "TEXCOORD_0": 7,
            "TEXCOORD_1": 8,
            "TEXCOORD_2": 9
          },
          "mode": 4,
          "material": 3,
          "indices": 0
        }
      ]
    },
    {
      "name": "Plane.002_0",
      "primitives": [
        {
          "attributes": {
            "NORMAL": 10,
            "POSITION": 11,
            "TANGENT": 12,
            "TEXCOORD_0": 13,
            "TEXCOORD_1": 14,
            "TEXCOORD_2": 15
          },
          "mode": 4,
          "material": 2,
          "indices": 1
        }
      ]
    },
    {
      "name": "Plane.003_0",
      "primitives": [
        {
          "attributes": {
            "NORMAL": 16,
            "POSITION": 17,
            "TANGENT": 18,
            "TEXCOORD_0": 19,
            "TEXCOORD_1": 20,
            "TEXCOORD_2": 21
          },
          "mode": 4,
          "material": 1,
          "indices": 2
        }
      ]
    },
    {
      "name": "Plane.004_0",
      "primitives": [
        {
          "attributes": {
            "NORMAL": 22,
            "POSITION": 23,
            "TANGENT": 24,
            "TEXCOORD_0": 25,
            "TEXCOORD_1": 26,
            "TEXCOORD_2": 27
          },
          "mode": 4,
          "material": 0,
          "indices": 3
        }
      ]
    }
  ],
  "nodes": [
    {
      "name": "Sketchfab_model",
      "rotation": [
        -0.7071067811865475,
        0,
        0,
        0.7071067811865476
      ],
      "scale": [
        21.25959014892578,
        21.25959014892578,
        21.25959014892578
      ],
      "children": [
        1
      ]
    },
    {
      "name": "Root",
      "children": [
        2,
        4,
        6,
        8
      ]
    },
    {
      "name": "Plane.000",
      "translation": [
        -22.60742,
        3.4714499999999995,
        0
      ],
      "scale": [
        20,
        20,
        20
      ],
      "children": [
        3
      ]
    },
    {
      "name": "Plane.000_0",
      "mesh": 0
    },
    {
      "name": "Plane.002",
      "translation": [
        3.38948,
        -7.152749999999999,
        0
      ],
      "rotation": [
        0,
        0,
        -0.6738327359795024,
        0.7388839177586546
      ],
      "scale": [
        16.88159711596033,
        16.88159711596033,
        16.8816
      ],
      "children": [
        5
      ]
    },
    {
      "name": "Plane.002_0",
      "mesh": 1
    },
    {
      "name": "Plane.003",
      "translation": [
        -17.657700000000002,
        -19.28782,
        0
      ],
      "rotation": [
        0,
        0,
        0.8974850030562448,
        0.44104497422500166
      ],
      "scale": [
        16.88160042775862,
        16.88160042775862,
        16.8816
      ],
      "children": [
        7
      ]
    },
    {
      "name": "Plane.003_0",
      "mesh": 2
    },
    {
      "name": "Plane.004",
      "translation": [
        -2.96519,
        12.498819999999998,
        0
      ],
      "rotation": [
        0,
        0,
        -0.3795801147402949,
        0.9251588709479819
      ],
      "scale": [
        13.515830451141358,
        13.515830451141358,
        13.515830000000001
      ],
      "children": [
        9
      ]
    },
    {
      "name": "Plane.004_0",
      "mesh": 3
    }
  ],
  "scenes": [
    {
      "name": "Sketchfab_Scene",
      "nodes": [
        0
      ]
    }
  ],
  "scene": 0,
  "extensionsUsed": [
    "KHR_materials_ior",
    "KHR_materials_specular"
  ]
}