{
  "asset": {
    "generator": "glTF-Transform v3.5.1",
    "version": "2.0",
    "extras": {
      "author": "Akshat (https://sketchfab.com/shooter24994)",
      "license": "CC-BY-4.0 (http://creativecommons.org/licenses/by/4.0/)",
      "source": "https://sketchfab.com/3d-models/jupiter-d252c96ae3de48d7968b1206522ba9f5",
      "title": "Jupiter"
    }
  },
  "accessors": [
    {
      "type": "SCALAR",
      "componentType": 5123,
      "count": 17664,
      "bufferView": 0,
      "byteOffset": 0
    },
    {
      "type": "VEC3",
      "componentType": 5126,
      "count": 3223,
      "bufferView": 1,
      "byteOffset": 0
    },
    {
      "type": "VEC3",
      "componentType": 5126,
      "count": 3223,
      "max": [
        1.0000014305114746,
        1.000001072883606,
        1
      ],
      "min": [
        -0.9999986290931702,
        -0.999998927116394,
        -1
      ],
      "bufferView": 1,
      "byteOffset": 12
    },
    {
      "type": "VEC2",
      "componentType": 5126,
      "count": 3223,
      "bufferView": 1,
      "byteOffset": 24
    }
  ],
  "bufferViews": [
    {
      "buffer": 0,
      "byteOffset": 0,
      "byteLength": 35328,
      "target": 34963
    },
    {
      "buffer": 0,
      "byteOffset": 35328,
      "byteLength": 103136,
      "byteStride": 32,
      "target": 34962
    }
  ],
  "samplers": [
    {
      "magFilter": 9729,
      "minFilter": 9987,
      "wrapS": 10497,
      "wrapT": 10497
    }
  ],
  "textures": [
    {
      "source": 0,
      "sampler": 0
    }
  ],
  "images": [
    {
      "name": "Material.002_diffuse",
      "mimeType": "image/jpeg",
      "uri": "textures/jupiter.jpg"
    }
  ],
  "buffers": [
    {
      "name": "jupiter",
      "uri": "jupiterOut.bin",
      "byteLength": 138464
    }
  ],
  "materials": [
    {
      "name": "Material.002",
      "doubleSided": true,
      "pbrMetallicRoughness": {
        "roughnessFactor": 0.8040408205773457,
        "metallicFactor": 0,
        "baseColorTexture": {
          "index": 0
        }
      },
      "extensions": {
        "KHR_materials_ior": {
          "ior": 1000
        },
        "KHR_materials_specular": {
          "specularColorFactor": [
            0,
            0,
            0
          ]
        }
      }
    }
  ],
  "meshes": [
    {
      "name": "Sphere_Material.002_0",
      "primitives": [
        {
          "attributes": {
            "NORMAL": 1,
            "POSITION": 2,
            "TEXCOORD_0": 3
          },
          "mode": 4,
          "material": 0,
          "indices": 0
        }
      ]
    }
  ],
  "nodes": [
    {
      "name": "Sketchfab_model",
      "rotation": [
        -0.7071067811865475,
        0,
        0,
        0.7071067811865476
      ],
      "children": [
        1
      ]
    },
    {
      "name": "3e95d3c536c24a0cb79bffc4af21feca.fbx",
      "rotation": [
        0.7071067811865475,
        0,
        0,
        0.7071067811865476
      ],
      "children": [
        2
      ]
    },
    {
      "name": "RootNode",
      "children": [
        3
      ]
    },
    {
      "name": "Sphere",
      "rotation": [
        -0.7071068387877038,
        0,
        0,
        0.7071067235853866
      ],
      "scale": [
        100,
        100.00000000000001,
        100.00000000000001
      ],
      "children": [
        4
      ]
    },
    {
      "name": "Sphere_Material.002_0",
      "mesh": 0
    }
  ],
  "scenes": [
    {
      "name": "Sketchfab_Scene",
      "nodes": [
        0
      ]
    }
  ],
  "scene": 0,
  "extensionsUsed": [
    "KHR_materials_ior",
    "KHR_materials_specular"
  ]
}