{
  "asset": {
    "generator": "glTF-Transform v3.5.1",
    "version": "2.0",
    "extras": {
      "author": "kongle (https://sketchfab.com/minecraftnorge)",
      "license": "CC-BY-SA-4.0 (http://creativecommons.org/licenses/by-sa/4.0/)",
      "source": "https://sketchfab.com/3d-models/neptune-8c6dc96f47ab4d798a1cb2d827da3fbe",
      "title": "Neptune"
    }
  },
  "accessors": [
    {
      "type": "SCALAR",
      "componentType": 5123,
      "count": 97536,
      "bufferView": 0,
      "byteOffset": 0
    },
    {
      "type": "VEC3",
      "componentType": 5126,
      "count": 16422,
      "bufferView": 1,
      "byteOffset": 0
    },
    {
      "type": "VEC3",
      "componentType": 5126,
      "count": 16422,
      "max": [
        2.0000040531158447,
        0.07563209533691406,
        1.8306281566619873
      ],
      "min": [
        0.0000019999999949504854,
        -1.9243700504302979,
        -0.1693740040063858
      ],
      "bufferView": 1,
      "byteOffset": 12
    },
    {
      "type": "VEC2",
      "componentType": 5126,
      "count": 16422,
      "bufferView": 1,
      "byteOffset": 24
    }
  ],
  "bufferViews": [
    {
      "buffer": 0,
      "byteOffset": 0,
      "byteLength": 195072,
      "target": 34963
    },
    {
      "buffer": 0,
      "byteOffset": 195072,
      "byteLength": 525504,
      "byteStride": 32,
      "target": 34962
    }
  ],
  "samplers": [
    {
      "magFilter": 9729,
      "minFilter": 9987,
      "wrapS": 10497,
      "wrapT": 10497
    }
  ],
  "textures": [
    {
      "source": 0,
      "sampler": 0
    }
  ],
  "images": [
    {
      "name": "moon_baseColor",
      "mimeType": "image/jpeg",
      "uri": "textures/neptune.jpg"
    }
  ],
  "buffers": [
    {
      "name": "neptune",
      "uri": "neptuneOut.bin",
      "byteLength": 720576
    }
  ],
  "materials": [
    {
      "name": "moon",
      "doubleSided": true,
      "pbrMetallicRoughness": {
        "roughnessFactor": 0.6,
        "metallicFactor": 0,
        "baseColorTexture": {
          "index": 0
        }
      }
    }
  ],
  "meshes": [
    {
      "name": "Object_0",
      "primitives": [
        {
          "attributes": {
            "NORMAL": 1,
            "POSITION": 2,
            "TEXCOORD_0": 3
          },
          "mode": 4,
          "material": 0,
          "indices": 0
        }
      ]
    }
  ],
  "nodes": [
    {
      "name": "Sketchfab_model",
      "rotation": [
        -0.7071067811865475,
        0,
        0,
        0.7071067811865476
      ],
      "children": [
        1
      ]
    },
    {
      "name": "moon.obj.cleaner",
      "children": [
        2
      ]
    },
    {
      "name": "Object_2",
      "mesh": 0
    }
  ],
  "scenes": [
    {
      "name": "Sketchfab_Scene",
      "nodes": [
        0
      ]
    }
  ],
  "scene": 0
}