{
  "asset": {
    "generator": "glTF-Transform v3.5.1",
    "version": "2.0",
    "extras": {
      "author": "uperesito (https://sketchfab.com/uperesito)",
      "license": "CC-BY-4.0 (http://creativecommons.org/licenses/by/4.0/)",
      "source": "https://sketchfab.com/3d-models/urano-b89a7d4c0f5147129b7fbac98ce70888",
      "title": "Urano"
    }
  },
  "accessors": [
    {
      "type": "SCALAR",
      "componentType": 5123,
      "count": 381132,
      "bufferView": 0,
      "byteOffset": 0
    },
    {
      "type": "SCALAR",
      "componentType": 5123,
      "count": 384624,
      "bufferView": 0,
      "byteOffset": 762264
    },
    {
      "type": "SCALAR",
      "componentType": 5123,
      "count": 385179,
      "bufferView": 0,
      "byteOffset": 1531512
    },
    {
      "type": "SCALAR",
      "componentType": 5123,
      "count": 385779,
      "bufferView": 0,
      "byteOffset": 2301872
    },
    {
      "type": "SCALAR",
      "componentType": 5123,
      "count": 386433,
      "bufferView": 0,
      "byteOffset": 3073432
    },
    {
      "type": "SCALAR",
      "componentType": 5123,
      "count": 387162,
      "bufferView": 0,
      "byteOffset": 3846300
    },
    {
      "type": "SCALAR",
      "componentType": 5123,
      "count": 387993,
      "bufferView": 0,
      "byteOffset": 4620624
    },
    {
      "type": "SCALAR",
      "componentType": 5123,
      "count": 295698,
      "bufferView": 0,
      "byteOffset": 5396612
    },
    {
      "type": "SCALAR",
      "componentType": 5123,
      "count": 2160,
      "bufferView": 0,
      "byteOffset": 5988008
    },
    {
      "type": "VEC3",
      "componentType": 5126,
      "count": 65532,
      "bufferView": 1,
      "byteOffset": 0
    },
    {
      "type": "VEC3",
      "componentType": 5126,
      "count": 65532,
      "max": [
        232.0303192138672,
        232,
        63.34440612792969
      ],
      "min": [
        -63.32484817504883,
        -232,
        -64.72593688964844
      ],
      "bufferView": 1,
      "byteOffset": 12
    },
    {
      "type": "VEC2",
      "componentType": 5126,
      "count": 65532,
      "bufferView": 1,
      "byteOffset": 24
    },
    {
      "type": "VEC2",
      "componentType": 5126,
      "count": 65532,
      "bufferView": 1,
      "byteOffset": 32
    },
    {
      "type": "VEC3",
      "componentType": 5126,
      "count": 65532,
      "bufferView": 2,
      "byteOffset": 0
    },
    {
      "type": "VEC3",
      "componentType": 5126,
      "count": 65532,
      "max": [
        223.69088745117188,
        232.00001525878906,
        126.84928894042969
      ],
      "min": [
        -126.76348876953125,
        -223.19041442871094,
        -125.54013061523438
      ],
      "bufferView": 2,
      "byteOffset": 12
    },
    {
      "type": "VEC2",
      "componentType": 5126,
      "count": 65532,
      "bufferView": 2,
      "byteOffset": 24
    },
    {
      "type": "VEC2",
      "componentType": 5126,
      "count": 65532,
      "bufferView": 2,
      "byteOffset": 32
    },
    {
      "type": "VEC3",
      "componentType": 5126,
      "count": 65532,
      "bufferView": 3,
      "byteOffset": 0
    },
    {
      "type": "VEC3",
      "componentType": 5126,
      "count": 65532,
      "max": [
        195.79478454589844,
        231.99998474121094,
        181.48216247558594
      ],
      "min": [
        -180.60325622558594,
        -195.09913635253906,
        -179.68470764160156
      ],
      "bufferView": 3,
      "byteOffset": 12
    },
    {
      "type": "VEC2",
      "componentType": 5126,
      "count": 65532,
      "bufferView": 3,
      "byteOffset": 24
    },
    {
      "type": "VEC2",
      "componentType": 5126,
      "count": 65532,
      "bufferView": 3,
      "byteOffset": 32
    },
    {
      "type": "VEC3",
      "componentType": 5126,
      "count": 65532,
      "bufferView": 4,
      "byteOffset": 0
    },
    {
      "type": "VEC3",
      "componentType": 5126,
      "count": 65532,
      "max": [
        219.29791259765625,
        231.9644012451172,
        219.726806640625
      ],
      "min": [
        -219.254638671875,
        -146.7562713623047,
        -219.254638671875
      ],
      "bufferView": 4,
      "byteOffset": 12
    },
    {
      "type": "VEC2",
      "componentType": 5126,
      "count": 65532,
      "bufferView": 4,
      "byteOffset": 24
    },
    {
      "type": "VEC2",
      "componentType": 5126,
      "count": 65532,
      "bufferView": 4,
      "byteOffset": 32
    },
    {
      "type": "VEC3",
      "componentType": 5126,
      "count": 65532,
      "bufferView": 5,
      "byteOffset": 0
    },
    {
      "type": "VEC3",
      "componentType": 5126,
      "count": 65532,
      "max": [
        232,
        231.98416137695312,
        232
      ],
      "min": [
        -232,
        -75.83802032470703,
        -232
      ],
      "bufferView": 5,
      "byteOffset": 12
    },
    {
      "type": "VEC2",
      "componentType": 5126,
      "count": 65532,
      "bufferView": 5,
      "byteOffset": 24
    },
    {
      "type": "VEC2",
      "componentType": 5126,
      "count": 65532,
      "bufferView": 5,
      "byteOffset": 32
    },
    {
      "type": "VEC3",
      "componentType": 5126,
      "count": 65532,
      "bufferView": 6,
      "byteOffset": 0
    },
    {
      "type": "VEC3",
      "componentType": 5126,
      "count": 65532,
      "max": [
        231.77561950683594,
        232.05535888671875,
        231.0186767578125
      ],
      "min": [
        -231.62916564941406,
        10.200603485107422,
        -231.70697021484375
      ],
      "bufferView": 6,
      "byteOffset": 12
    },
    {
      "type": "VEC2",
      "componentType": 5126,
      "count": 65532,
      "bufferView": 6,
      "byteOffset": 24
    },
    {
      "type": "VEC2",
      "componentType": 5126,
      "count": 65532,
      "bufferView": 6,
      "byteOffset": 32
    },
    {
      "type": "VEC3",
      "componentType": 5126,
      "count": 65532,
      "bufferView": 7,
      "byteOffset": 0
    },
    {
      "type": "VEC3",
      "componentType": 5126,
      "count": 65532,
      "max": [
        205.37367248535156,
        232.09530639648438,
        176.32887268066406
      ],
      "min": [
        -203.3031463623047,
        107.91504669189453,
        -203.5988311767578
      ],
      "bufferView": 7,
      "byteOffset": 12
    },
    {
      "type": "VEC2",
      "componentType": 5126,
      "count": 65532,
      "bufferView": 7,
      "byteOffset": 24
    },
    {
      "type": "VEC2",
      "componentType": 5126,
      "count": 65532,
      "bufferView": 7,
      "byteOffset": 32
    },
    {
      "type": "VEC3",
      "componentType": 5126,
      "count": 50765,
      "bufferView": 8,
      "byteOffset": 0
    },
    {
      "type": "VEC3",
      "componentType": 5126,
      "count": 50765,
      "max": [
        120.55997467041016,
        231.9611358642578,
        218.82199096679688
      ],
      "min": [
        -116.84058380126953,
        14.567400932312012,
        -203.38385009765625
      ],
      "bufferView": 8,
      "byteOffset": 12
    },
    {
      "type": "VEC2",
      "componentType": 5126,
      "count": 50765,
      "bufferView": 8,
      "byteOffset": 24
    },
    {
      "type": "VEC2",
      "componentType": 5126,
      "count": 50765,
      "bufferView": 8,
      "byteOffset": 32
    },
    {
      "type": "VEC3",
      "componentType": 5126,
      "count": 722,
      "bufferView": 9,
      "byteOffset": 0
    },
    {
      "type": "VEC3",
      "componentType": 5126,
      "count": 722,
      "max": [
        949.8309936523438,
        449.91552734375,
        0
      ],
      "min": [
        -50,
        -549.9154663085938,
        0
      ],
      "bufferView": 9,
      "byteOffset": 12
    },
    {
      "type": "VEC2",
      "componentType": 5126,
      "count": 722,
      "bufferView": 9,
      "byteOffset": 24
    }
  ],
  "bufferViews": [
    {
      "buffer": 0,
      "byteOffset": 0,
      "byteLength": 5992328,
      "target": 34963
    },
    {
      "buffer": 0,
      "byteOffset": 5992328,
      "byteLength": 2621280,
      "byteStride": 40,
      "target": 34962
    },
    {
      "buffer": 0,
      "byteOffset": 8613608,
      "byteLength": 2621280,
      "byteStride": 40,
      "target": 34962
    },
    {
      "buffer": 0,
      "byteOffset": 11234888,
      "byteLength": 2621280,
      "byteStride": 40,
      "target": 34962
    },
    {
      "buffer": 0,
      "byteOffset": 13856168,
      "byteLength": 2621280,
      "byteStride": 40,
      "target": 34962
    },
    {
      "buffer": 0,
      "byteOffset": 16477448,
      "byteLength": 2621280,
      "byteStride": 40,
      "target": 34962
    },
    {
      "buffer": 0,
      "byteOffset": 19098728,
      "byteLength": 2621280,
      "byteStride": 40,
      "target": 34962
    },
    {
      "buffer": 0,
      "byteOffset": 21720008,
      "byteLength": 2621280,
      "byteStride": 40,
      "target": 34962
    },
    {
      "buffer": 0,
      "byteOffset": 24341288,
      "byteLength": 2030600,
      "byteStride": 40,
      "target": 34962
    },
    {
      "buffer": 0,
      "byteOffset": 26371888,
      "byteLength": 23104,
      "byteStride": 32,
      "target": 34962
    }
  ],
  "samplers": [
    {
      "magFilter": 9729,
      "minFilter": 9987,
      "wrapS": 10497,
      "wrapT": 10497
    }
  ],
  "textures": [
    {
      "source": 0,
      "sampler": 0
    },
    {
      "source": 1,
      "sampler": 0
    }
  ],
  "images": [
    {
      "name": "Mat.1_baseColor",
      "mimeType": "image/png",
      "uri": "textures/uranus1.png"
    },
    {
      "name": "material_baseColor",
      "mimeType": "image/png",
      "uri": "textures/uranus2.png"
    }
  ],
  "buffers": [
    {
      "name": "uranus",
      "uri": "uranusOut.bin",
      "byteLength": 26394992
    }
  ],
  "materials": [
    {
      "name": "Mat.1",
      "doubleSided": true,
      "pbrMetallicRoughness": {
        "roughnessFactor": 0.6,
        "metallicFactor": 0,
        "baseColorTexture": {
          "index": 0
        }
      }
    },
    {
      "name": "material",
      "alphaMode": "BLEND",
      "doubleSided": true,
      "pbrMetallicRoughness": {
        "baseColorFactor": [
          1,
          1,
          1,
          0.4
        ],
        "roughnessFactor": 0.6,
        "metallicFactor": 0,
        "baseColorTexture": {
          "index": 1
        }
      }
    }
  ],
  "meshes": [
    {
      "name": "Esfera_Mat.1_0",
      "primitives": [
        {
          "attributes": {
            "NORMAL": 9,
            "POSITION": 10,
            "TEXCOORD_0": 11,
            "TEXCOORD_1": 12
          },
          "mode": 4,
          "material": 0,
          "indices": 0
        }
      ]
    },
    {
      "name": "Esfera_Mat.1_0",
      "primitives": [
        {
          "attributes": {
            "NORMAL": 13,
            "POSITION": 14,
            "TEXCOORD_0": 15,
            "TEXCOORD_1": 16
          },
          "mode": 4,
          "material": 0,
          "indices": 1
        }
      ]
    },
    {
      "name": "Esfera_Mat.1_0",
      "primitives": [
        {
          "attributes": {
            "NORMAL": 17,
            "POSITION": 18,
            "TEXCOORD_0": 19,
            "TEXCOORD_1": 20
          },
          "mode": 4,
          "material": 0,
          "indices": 2
        }
      ]
    },
    {
      "name": "Esfera_Mat.1_0",
      "primitives": [
        {
          "attributes": {
            "NORMAL": 21,
            "POSITION": 22,
            "TEXCOORD_0": 23,
            "TEXCOORD_1": 24
          },
          "mode": 4,
          "material": 0,
          "indices": 3
        }
      ]
    },
    {
      "name": "Esfera_Mat.1_0",
      "primitives": [
        {
          "attributes": {
            "NORMAL": 25,
            "POSITION": 26,
            "TEXCOORD_0": 27,
            "TEXCOORD_1": 28
          },
          "mode": 4,
          "material": 0,
          "indices": 4
        }
      ]
    },
    {
      "name": "Esfera_Mat.1_0",
      "primitives": [
        {
          "attributes": {
            "NORMAL": 29,
            "POSITION": 30,
            "TEXCOORD_0": 31,
            "TEXCOORD_1": 32
          },
          "mode": 4,
          "material": 0,
          "indices": 5
        }
      ]
    },
    {
      "name": "Esfera_Mat.1_0",
      "primitives": [
        {
          "attributes": {
            "NORMAL": 33,
            "POSITION": 34,
            "TEXCOORD_0": 35,
            "TEXCOORD_1": 36
          },
          "mode": 4,
          "material": 0,
          "indices": 6
        }
      ]
    },
    {
      "name": "Esfera_Mat.1_0",
      "primitives": [
        {
          "attributes": {
            "NORMAL": 37,
            "POSITION": 38,
            "TEXCOORD_0": 39,
            "TEXCOORD_1": 40
          },
          "mode": 4,
          "material": 0,
          "indices": 7
        }
      ]
    },
    {
      "name": "Plano_Mat_0",
      "primitives": [
        {
          "attributes": {
            "NORMAL": 41,
            "POSITION": 42,
            "TEXCOORD_0": 43
          },
          "mode": 4,
          "material": 1,
          "indices": 8
        }
      ]
    }
  ],
  "nodes": [
    {
      "name": "Sketchfab_model",
      "rotation": [
        -0.7071067811865475,
        0,
        0,
        0.7071067811865476
      ],
      "children": [
        1
      ]
    },
    {
      "name": "Urano.fbx",
      "rotation": [
        0.7071067811865475,
        0,
        0,
        0.7071067811865476
      ],
      "children": [
        2
      ]
    },
    {
      "name": "RootNode",
      "children": [
        3,
        12
      ]
    },
    {
      "name": "Esfera",
      "rotation": [
        -0.7523973036736546,
        -3.2888332023299914e-8,
        -2.879311094642615e-8,
        0.6587095698595947
      ],
      "children": [
        4,
        5,
        6,
        7,
        8,
        9,
        10,
        11
      ]
    },
    {
      "name": "Esfera_Mat.1_0",
      "mesh": 0
    },
    {
      "name": "Esfera_Mat.1_0",
      "mesh": 1
    },
    {
      "name": "Esfera_Mat.1_0",
      "mesh": 2
    },
    {
      "name": "Esfera_Mat.1_0",
      "mesh": 3
    },
    {
      "name": "Esfera_Mat.1_0",
      "mesh": 4
    },
    {
      "name": "Esfera_Mat.1_0",
      "mesh": 5
    },
    {
      "name": "Esfera_Mat.1_0",
      "mesh": 6
    },
    {
      "name": "Esfera_Mat.1_0",
      "mesh": 7
    },
    {
      "name": "anillos",
      "rotation": [
        0.06754384341819733,
        0,
        0,
        0.9977163069812471
      ],
      "children": [
        13
      ]
    },
    {
      "name": "Plano",
      "translation": [
        -450,
        50,
        -2.6645352591003757e-15
      ],
      "rotation": [
        -0.13460540893563844,
        0,
        0,
        0.990899280393961
      ],
      "children": [
        14
      ]
    },
    {
      "name": "Plano_Mat_0",
      "mesh": 8
    }
  ],
  "scenes": [
    {
      "name": "Sketchfab_Scene",
      "nodes": [
        0
      ]
    }
  ],
  "scene": 0
}